<svg xmlns="http://www.w3.org/2000/svg" viewBox="0 0 800 600" width="800" height="600">
  <defs>
    <linearGradient id="bg" x1="0" y1="0" x2="1" y2="1">
      <stop offset="0" stop-color="#0c1f17"/>
      <stop offset="0.55" stop-color="#0f3a2c"/>
      <stop offset="1" stop-color="#06251c"/>
    </linearGradient>
    <radialGradient id="glow" cx="0.72" cy="0.28" r="0.85">
      <stop offset="0" stop-color="#2bd47d" stop-opacity="0.38"/>
      <stop offset="1" stop-color="#2bd47d" stop-opacity="0"/>
    </radialGradient>
  </defs>
  <rect width="800" height="600" fill="url(#bg)"/>
  <rect width="800" height="600" fill="url(#glow)"/>
  <g fill="#2bd47d" opacity="0.07">
    <circle cx="60" cy="60" r="2.2"/>
    <circle cx="60" cy="130" r="2.2"/>
    <circle cx="60" cy="200" r="2.2"/>
    <circle cx="60" cy="270" r="2.2"/>
    <circle cx="60" cy="340" r="2.2"/>
    <circle cx="60" cy="410" r="2.2"/>
    <circle cx="60" cy="480" r="2.2"/>
    <circle cx="60" cy="550" r="2.2"/>
    <circle cx="130" cy="60" r="2.2"/>
    <circle cx="130" cy="130" r="2.2"/>
    <circle cx="130" cy="200" r="2.2"/>
    <circle cx="130" cy="270" r="2.2"/>
    <circle cx="130" cy="340" r="2.2"/>
    <circle cx="130" cy="410" r="2.2"/>
    <circle cx="130" cy="480" r="2.2"/>
    <circle cx="130" cy="550" r="2.2"/>
    <circle cx="200" cy="60" r="2.2"/>
    <circle cx="200" cy="130" r="2.2"/>
    <circle cx="200" cy="200" r="2.2"/>
    <circle cx="200" cy="270" r="2.2"/>
    <circle cx="200" cy="340" r="2.2"/>
    <circle cx="200" cy="410" r="2.2"/>
    <circle cx="200" cy="480" r="2.2"/>
    <circle cx="200" cy="550" r="2.2"/>
    <circle cx="270" cy="60" r="2.2"/>
    <circle cx="270" cy="130" r="2.2"/>
    <circle cx="270" cy="200" r="2.2"/>
    <circle cx="270" cy="270" r="2.2"/>
    <circle cx="270" cy="340" r="2.2"/>
    <circle cx="270" cy="410" r="2.2"/>
    <circle cx="270" cy="480" r="2.2"/>
    <circle cx="270" cy="550" r="2.2"/>
    <circle cx="340" cy="60" r="2.2"/>
    <circle cx="340" cy="130" r="2.2"/>
    <circle cx="340" cy="200" r="2.2"/>
    <circle cx="340" cy="270" r="2.2"/>
    <circle cx="340" cy="340" r="2.2"/>
    <circle cx="340" cy="410" r="2.2"/>
    <circle cx="340" cy="480" r="2.2"/>
    <circle cx="340" cy="550" r="2.2"/>
    <circle cx="410" cy="60" r="2.2"/>
    <circle cx="410" cy="130" r="2.2"/>
    <circle cx="410" cy="200" r="2.2"/>
    <circle cx="410" cy="270" r="2.2"/>
    <circle cx="410" cy="340" r="2.2"/>
    <circle cx="410" cy="410" r="2.2"/>
    <circle cx="410" cy="480" r="2.2"/>
    <circle cx="410" cy="550" r="2.2"/>
    <circle cx="480" cy="60" r="2.2"/>
    <circle cx="480" cy="130" r="2.2"/>
    <circle cx="480" cy="200" r="2.2"/>
    <circle cx="480" cy="270" r="2.2"/>
    <circle cx="480" cy="340" r="2.2"/>
    <circle cx="480" cy="410" r="2.2"/>
    <circle cx="480" cy="480" r="2.2"/>
    <circle cx="480" cy="550" r="2.2"/>
    <circle cx="550" cy="60" r="2.2"/>
    <circle cx="550" cy="130" r="2.2"/>
    <circle cx="550" cy="200" r="2.2"/>
    <circle cx="550" cy="270" r="2.2"/>
    <circle cx="550" cy="340" r="2.2"/>
    <circle cx="550" cy="410" r="2.2"/>
    <circle cx="550" cy="480" r="2.2"/>
    <circle cx="550" cy="550" r="2.2"/>
    <circle cx="620" cy="60" r="2.2"/>
    <circle cx="620" cy="130" r="2.2"/>
    <circle cx="620" cy="200" r="2.2"/>
    <circle cx="620" cy="270" r="2.2"/>
    <circle cx="620" cy="340" r="2.2"/>
    <circle cx="620" cy="410" r="2.2"/>
    <circle cx="620" cy="480" r="2.2"/>
    <circle cx="620" cy="550" r="2.2"/>
    <circle cx="690" cy="60" r="2.2"/>
    <circle cx="690" cy="130" r="2.2"/>
    <circle cx="690" cy="200" r="2.2"/>
    <circle cx="690" cy="270" r="2.2"/>
    <circle cx="690" cy="340" r="2.2"/>
    <circle cx="690" cy="410" r="2.2"/>
    <circle cx="690" cy="480" r="2.2"/>
    <circle cx="690" cy="550" r="2.2"/>
    <circle cx="760" cy="60" r="2.2"/>
    <circle cx="760" cy="130" r="2.2"/>
    <circle cx="760" cy="200" r="2.2"/>
    <circle cx="760" cy="270" r="2.2"/>
    <circle cx="760" cy="340" r="2.2"/>
    <circle cx="760" cy="410" r="2.2"/>
    <circle cx="760" cy="480" r="2.2"/>
    <circle cx="760" cy="550" r="2.2"/>
  </g>
  <rect x="0" y="0" width="800" height="8" fill="#2bd47d"/>
  <text x="400" y="296" text-anchor="middle" font-family="'PingFang SC', 'Microsoft YaHei', 'Hiragino Sans GB', system-ui, sans-serif" font-size="52" font-weight="700" fill="#eafff5">智能补给机器人</text>
  <text x="400" y="346" text-anchor="middle" font-family="'PingFang SC', 'Microsoft YaHei', 'Hiragino Sans GB', system-ui, sans-serif" font-size="22" letter-spacing="6" fill="#4dffa6">数字办公</text>
  <text x="400" y="544" text-anchor="middle" font-family="'PingFang SC', 'Microsoft YaHei', 'Hiragino Sans GB', system-ui, sans-serif" font-size="15" letter-spacing="4" fill="#7fa99a">示例图 · SAMPLE · 待替换真实产品照</text>
</svg>
